<?xml version="1.0" standalone="no"?>
<!DOCTYPE svg PUBLIC "-//W3C//DTD SVG 20010904//EN"
 "http://www.w3.org/TR/2001/REC-SVG-20010904/DTD/svg10.dtd">
<svg version="1.0" xmlns="http://www.w3.org/2000/svg"
 width="700.000000pt" height="700.000000pt" viewBox="0 0 700.000000 700.000000"
 preserveAspectRatio="xMidYMid meet">
<metadata>
Created by potrace 1.14, written by Peter Selinger 2001-2017
</metadata>
<g transform="translate(0.000000,700.000000) scale(0.100000,-0.100000)"
fill="#000000" stroke="none">
<path d="M5305 6419 c-27 -4 -61 -9 -75 -12 -34 -7 -233 -39 -385 -63 -29 -4
-125 -21 -175 -30 -14 -2 -47 -7 -75 -10 -27 -4 -53 -8 -56 -10 -3 -1 -28 -6
-55 -9 -27 -4 -69 -11 -94 -15 -42 -8 -46 -7 -65 18 -62 84 -139 124 -241 125
-58 0 -82 -5 -128 -27 -65 -32 -119 -90 -142 -155 -10 -25 -20 -49 -23 -53 -3
-3 -51 -14 -106 -23 -55 -10 -109 -19 -120 -21 -30 -7 -111 -7 -132 -1 -10 3
-34 8 -53 11 -19 3 -76 12 -126 21 -50 9 -104 17 -120 19 -16 2 -56 9 -89 15
-33 6 -78 13 -100 16 -22 3 -65 10 -95 15 -30 5 -73 12 -95 15 -22 4 -80 13
-130 21 -49 8 -103 17 -120 20 -32 5 -87 14 -120 20 -11 2 -65 11 -120 19
-140 21 -166 26 -195 31 -14 3 -38 7 -55 9 -40 6 -68 11 -215 35 -148 24 -216
25 -293 5 -150 -39 -278 -160 -317 -302 -7 -23 -15 -41 -19 -39 -3 2 -35 0
-71 -5 -161 -22 -292 -95 -390 -217 -19 -24 -53 -51 -78 -62 -117 -52 -220
-152 -280 -275 -65 -131 -62 -31 -62 -2001 0 -1243 3 -1807 11 -1853 23 -140
127 -303 240 -378 37 -24 39 -29 40 -77 2 -222 91 -397 261 -514 118 -81 288
-117 423 -88 11 2 47 7 80 10 33 4 92 11 130 16 39 5 88 11 110 14 22 3 96 12
165 20 69 9 141 18 160 20 19 3 73 10 120 16 126 16 131 17 445 55 160 20 299
37 310 39 11 2 71 10 134 17 l114 13 37 -40 c75 -81 155 -131 270 -170 88 -29
243 -25 343 9 90 31 171 83 241 156 36 36 56 49 70 46 12 -2 44 -7 71 -10 28
-3 64 -8 80 -10 17 -2 53 -7 80 -10 28 -3 59 -8 70 -10 11 -2 43 -7 70 -10 28
-3 64 -8 80 -10 17 -2 50 -7 75 -9 43 -5 657 -82 730 -91 19 -3 109 -14 200
-25 91 -11 179 -22 195 -25 183 -25 231 -27 304 -11 269 57 457 285 466 564 2
83 4 87 32 107 114 78 191 183 239 325 18 53 19 131 22 1875 3 2009 6 1908
-59 2039 -59 119 -164 223 -277 274 -20 9 -75 56 -122 103 -61 61 -103 94
-150 117 -75 36 -165 61 -228 64 -30 1 -45 6 -49 17 -17 54 -78 162 -111 197
-107 112 -255 165 -407 143z"/>
</g>
</svg>
