<?xml version="1.0" standalone="no"?>
<!DOCTYPE svg PUBLIC "-//W3C//DTD SVG 20010904//EN"
 "http://www.w3.org/TR/2001/REC-SVG-20010904/DTD/svg10.dtd">
<svg version="1.0" xmlns="http://www.w3.org/2000/svg"
 width="700.000000pt" height="700.000000pt" viewBox="0 0 700.000000 700.000000"
 preserveAspectRatio="xMidYMid meet">
<metadata>
Created by potrace 1.14, written by Peter Selinger 2001-2017
</metadata>
<g transform="translate(0.000000,700.000000) scale(0.100000,-0.100000)"
fill="#000000" stroke="none">
<path d="M3983 6394 c-52 -19 -128 -85 -153 -134 -29 -58 -40 -148 -40 -345
l0 -180 -20 33 c-21 34 -87 72 -125 72 -38 0 -104 -38 -125 -72 -20 -33 -20
-42 -18 -1985 l3 -1953 37 -36 c67 -68 181 -55 230 25 22 35 23 45 26 314 l3
278 20 -26 c26 -32 70 -55 107 -55 53 0 1525 300 1549 315 49 33 76 102 63
162 -11 48 -65 99 -115 109 -28 5 -219 -30 -773 -140 -406 -81 -751 -152 -769
-157 -18 -6 -44 -24 -58 -40 l-25 -31 0 367 0 367 28 -30 c48 -51 86 -55 240
-25 l134 26 62 -22 c118 -41 221 -22 309 59 l53 48 409 82 c256 51 421 89 440
100 85 52 90 193 10 246 -56 37 -78 35 -454 -41 l-361 -72 2 285 3 286 380 76
c209 42 390 80 402 84 30 10 70 59 82 101 21 77 -35 166 -114 181 -27 5 -128
-12 -373 -60 -186 -37 -347 -70 -359 -73 l-23 -5 0 284 0 285 388 77 c213 43
400 85 415 94 86 51 93 195 12 248 -56 37 -78 35 -454 -41 l-361 -72 0 226 c0
158 -4 242 -13 279 -28 106 -106 180 -220 208 l-63 16 -12 56 c-26 124 -149
223 -275 221 -34 0 -81 -7 -104 -15z m-87 -2823 c26 -22 53 -41 60 -41 8 0 14
-4 14 -10 0 -5 -8 -10 -17 -10 -41 0 -93 -22 -122 -52 l-31 -32 0 140 1 139
24 -46 c13 -26 45 -65 71 -88z"/>
<path d="M1687 5830 c-136 -34 -226 -146 -227 -281 0 -84 22 -147 69 -201 61
-68 119 -93 221 -93 71 0 93 4 134 25 175 90 212 336 70 472 -69 66 -182 99
-267 78z"/>
<path d="M5835 5827 c-3 -6 -6 -826 -7 -1822 l-3 -1810 -24 -60 c-51 -126
-138 -235 -241 -300 -92 -58 -150 -71 -775 -171 -336 -53 -614 -101 -620 -106
-13 -12 24 -41 90 -74 l50 -24 667 0 667 0 79 25 c199 63 355 236 397 442 13
64 15 306 13 1880 l-3 1808 -24 49 c-13 26 -40 64 -59 83 -56 56 -196 110
-207 80z"/>
<path d="M595 5758 c-89 -46 -194 -155 -237 -248 -67 -142 -63 -6 -63 -2010 0
-1505 2 -1835 14 -1880 32 -131 127 -273 230 -344 l41 -29 0 -72 c0 -283 197
-525 476 -582 l81 -17 947 118 947 119 48 -51 c66 -68 154 -124 243 -153 108
-35 264 -34 367 3 87 32 157 77 229 150 l52 52 122 -15 c68 -9 494 -62 947
-119 l823 -104 82 17 c273 56 458 275 473 559 l6 97 39 28 c102 70 197 213
229 343 21 82 21 3678 0 3760 -38 157 -158 313 -290 379 -34 18 -65 30 -68 28
-2 -3 7 -28 21 -56 59 -116 56 -2 56 -1991 0 -2019 4 -1888 -65 -2019 -68
-128 -184 -231 -313 -278 -81 -29 -97 -31 -1472 -168 l-1075 -108 -1214 122
c-1070 107 -1222 124 -1287 146 -180 60 -306 187 -371 370 l-28 80 0 1845 c0
1763 1 1848 18 1905 10 32 30 81 43 107 13 26 21 48 17 48 -5 -1 -35 -15 -68
-32z"/>
<path d="M2275 5386 c-63 -28 -100 -96 -88 -159 7 -37 45 -92 74 -107 30 -17
757 -160 810 -160 144 0 190 199 64 271 -28 16 -765 170 -810 169 -11 -1 -33
-7 -50 -14z"/>
<path d="M1540 4652 c-98 -49 -108 -197 -17 -257 34 -22 1511 -317 1560 -311
147 17 173 229 34 280 -44 17 -1482 306 -1520 306 -12 0 -38 -8 -57 -18z"/>
<path d="M1526 3771 c-46 -30 -66 -70 -66 -129 0 -47 4 -57 38 -93 l38 -41
744 -149 c409 -82 765 -149 791 -149 144 0 190 199 64 271 -36 21 -1469 309
-1535 309 -27 0 -56 -8 -74 -19z"/>
<path d="M1540 2902 c-97 -48 -109 -189 -21 -252 24 -16 197 -54 778 -171 477
-96 761 -148 785 -146 147 18 174 229 35 281 -44 17 -1482 306 -1520 306 -12
0 -38 -8 -57 -18z"/>
</g>
</svg>
